# xmcd
#
# Track frame offsets: 
#        150
#        12462
#        23822
#        33602
#        46510
#        59492
#        71750
#        82915
#        96612
#        110197
#        121107
#        132465
#        142362
#        155297
#        168055
#        180630
#        192807
#        205290
#        218787
#        232730
#        245642
#        258837
#        271465
#        284242
#        297302
#
# Disc length: 4151 seconds
#
# Revision: 7
# Processed by: cddbd v1.5.2PL0 Copyright (c) Steve Scherf et al.
# Submitted via: ExactAudioCopy v0.95b4
#
DISCID=7e103519
DTITLE=Various Artist - Louis Armstrong and King Oliver
DYEAR=1992
DGENRE=Jazz
TTITLE0=King Oliver's Creole Jazz Band - Just Gone
TTITLE1=King Oliver's Creole Jazz Band - Canal Street Blues
TTITLE2=King Oliver's Creole Jazz Band - Mandy Lee Blues
TTITLE3=King Oliver's Creole Jazz Band - I'm Going Away To Wear You Of
TTITLE3=f My Min
TTITLE4=King Oliver's Creole Jazz Band - Chimes Blues
TTITLE5=King Oliver's Creole Jazz Band - Weather Bird Rag
TTITLE6=King Oliver's Creole Jazz Band - Dipper Mouth Blues
TTITLE7=King Oliver's Creole Jazz Band - Froggie Moore
TTITLE8=King Oliver's Creole Jazz Band - Snake Rag
TTITLE9=King Oliver's Creole Jazz Band - Alligator Hop
TTITLE10=King Oliver's Creole Jazz Band - Zulu's Ball
TTITLE11=King Oliver's Creole Jazz Band - Workingman Blues
TTITLE12=King Oliver's Creole Jazz Band - Krooked Blues
TTITLE13=King Oliver's Creole Jazz Band - Mabel's Dream (1st Take)
TTITLE14=King Oliver's Creole Jazz Band - Mabel's Dream (2nd Take)
TTITLE15=King Oliver's Creole Jazz Band - Southern Stomp (1st Take)
TTITLE16=King Oliver's Creole Jazz Band - Southern Stomp (2nd Take)
TTITLE17=King Oliver's Creole Jazz Band - Riverside Blues
TTITLE18=Louis Armstrong and The Red Onion Jazz Babies - Texas Moaner Bl
TTITLE18=ues
TTITLE19=Louis Armstrong and The Red Onion Jazz Babies - Of All The Wron
TTITLE19=gs You 've Done To Me
TTITLE20=Louis Armstrong and The Red Onion Jazz Babies - Terrible Blues
TTITLE21=Louis Armstrong and The Red Onion Jazz Babies - Santa Claus Blu
TTITLE21=es
TTITLE22=Louis Armstrong and The Red Onion Jazz Babies - Nobody Knows Th
TTITLE22=e Way I Feel This Morning
TTITLE23=Louis Armstrong and The Red Onion Jazz Babies - Early Every Mor
TTITLE23=n
TTITLE24=Louis Armstrong and The Red Onion Jazz Babies - Cake Walking Ba
TTITLE24=bies From Home
EXTD=
EXTT0=
EXTT1=
EXTT2=
EXTT3=
EXTT4=
EXTT5=
EXTT6=
EXTT7=
EXTT8=
EXTT9=
EXTT10=
EXTT11=
EXTT12=
EXTT13=
EXTT14=
EXTT15=
EXTT16=
EXTT17=
EXTT18=
EXTT19=
EXTT20=
EXTT21=
EXTT22=
EXTT23=
EXTT24=
PLAYORDER=
